<svg xmlns="http://www.w3.org/2000/svg" width="700pt" height="700pt" version="1" viewBox="0 0 700.000000 700.000000"><path d="M145.2 2.1c-2.3 1.2-5.5 3.7-7 5.8-1.6 2-10.6 16.4-20.1 32-9.5 15.6-22.7 37.2-29.3 48-6.7 10.8-12.9 20.9-13.8 22.6-1 1.6-6.6 10.9-12.5 20.5s-14.8 24.2-19.8 32.5c-5 8.2-15.8 26-24 39.5-8.3 13.5-15.8 26.6-16.8 29.1-2.6 6.8-2 17.2 1.5 24.1 1.4 2.9 7.9 12.1 14.4 20.5 10.4 13.5 23.1 30.1 59.8 78.3 6 8 14.3 18.8 18.3 24 4 5.2 8.1 10.6 9.1 12 1.1 1.4 7.6 9.9 14.5 19s16.4 21.7 21.3 28c4.8 6.3 19.1 25 31.7 41.6 12.7 16.6 24 31.4 25.2 33 4.4 5.9 46.3 61 48.2 63.4 8.3 10.8 29.9 39.3 31.1 41 .8 1.3 2 2.8 2.6 3.4.5.6 12.1 15.7 25.7 33.6 28.6 37.7 31.7 41.4 36.6 43.9 7.4 3.7 18.3 1.1 23.7-5.7 1.1-1.5 23.8-31.3 50.4-66.2 26.6-34.9 51.8-68 56-73.5 4.2-5.5 12.9-17 19.4-25.5 6.4-8.5 12.3-16.2 12.9-17 .7-.8 12-15.7 25.2-33s24.3-32 24.7-32.5c.5-.6 1.8-2.3 3.1-4 5.8-7.6 114.1-149.8 124.7-163.6 12.7-16.7 15.8-21.3 16.6-25 2.5-12.2 1.2-18.2-6.4-30.9-3.1-5.2-6.1-10.3-6.7-11.2-.5-1-4.5-7.5-8.8-14.5-4.3-7-10.2-16.6-13-21.3-2.9-4.7-9.7-15.8-15.2-24.8s-10.9-17.9-12-19.8c-1.1-1.9-15.9-26.3-33-54.2-17-27.9-33-54.1-35.4-58.2-5.6-9.3-10.8-14.6-15.8-15.9C549.7.3 486.7 0 349 0H149.5l-4.3 2.1zm107.5 52.3c.4.4-14.4 35.5-25.3 60.1-.7 1.6-10.1 23.4-20.9 48.4-10.8 25-20.3 47-21.3 49l-1.7 3.6-58.2-.1c-32.1 0-58.5-.2-58.7-.5-.3-.2 3.1-6.2 7.5-13.3 4.3-7 7.9-13 7.9-13.3 0-.3.8-1.7 1.9-3.1 1-1.5 5.7-9 10.4-16.7 4.6-7.7 14.6-24.1 22.1-36.4 7.5-12.3 13.6-22.5 13.6-22.8 0-.2.5-.9 1-1.6.6-.7 6.7-10.4 13.5-21.7 6.8-11.3 14-23.1 16-26.2L164 54l25.2-.2c30.7-.4 62.9 0 63.5.6zm144.4.4c.3.4 2.3 4.7 4.4 9.7 2 4.9 4.5 10.8 5.5 13 1 2.2 3.9 8.9 6.4 15 2.6 6 5.3 12.3 6.1 14 .7 1.6 5 11.5 9.5 22 4.5 10.4 8.8 20.5 9.6 22.2 3.6 8.4 4.5 10.3 7.9 18.3 2 4.7 4.3 9.8 5 11.5 5.9 13 14.4 33.9 14 34.3-.8.8-230.6.8-231.1 0-.3-.5 19.6-47.9 27.1-64.3.8-1.6 4.4-10 8-18.5 3.7-8.5 7.5-17.4 8.6-19.7 1-2.3 1.9-4.4 1.9-4.7 0-.3 1.3-3.4 2.8-6.8 1.6-3.5 4.8-10.8 7.2-16.3 2.3-5.5 5.2-12 6.2-14.5 1.1-2.5 2.7-6.1 3.5-8 3.6-8.7 1.5-7.9 21.7-8.2 27.5-.4 75 .2 75.7 1zm140 1.3c.9 1.2 5.9 9.2 11 17.8 5.2 8.6 9.7 15.7 10.2 15.9.4.2.7.7.7 1.2s2.9 5.5 6.4 11.2c3.5 5.7 15.9 26 27.6 45.3 11.7 19.2 25.8 42.3 31.2 51.2 5.4 8.8 9.8 16.3 9.8 16.5 0 .2-114.1.2-117.7-.1-.7-.1-1.3-.8-1.3-1.6s-.4-2.3-1-3.3c-.5-.9-5.4-12.1-10.9-24.8-5.4-12.6-10.9-25.2-12-28-1.2-2.7-2.6-5.8-3.1-6.9-.4-1.1-1.5-3.6-2.3-5.5-16.3-37.5-38-87.9-38.4-89.2-.5-1.6 1-1.8 17.8-2 10.1-.2 30.1-.2 44.4-.1 25.3.3 26 .3 27.6 2.4zM183.8 271.8c.5 1.5 6.9 18.9 14.2 38.7 26.2 71.5 32.3 88.2 35.5 97 7.4 20.3 25.7 70.2 26.8 73 .6 1.6 1.2 3.2 1.3 3.5.4 1.5 2.5 7 12.3 33.5 9.4 25.5 12.1 33.7 9.1 28.5-.5-.8-4.4-6.1-8.7-11.7-4.3-5.5-17.5-22.9-29.3-38.4-11.8-15.6-29.7-39.1-39.8-52.4-10.1-13.2-19.3-25.3-20.5-26.9-1.2-1.6-3.1-4.1-4.3-5.5-1.1-1.4-8.3-10.9-16-21.1-7.6-10.2-14.1-18.7-14.4-19-.3-.3-3.4-4.3-6.9-9-3.6-4.7-9.2-12.1-12.6-16.5-3.4-4.4-13.3-17.5-22-29-8.8-11.6-16.5-21.7-17.2-22.5-3.6-4.5-18.3-24.1-18.3-24.5 0-.3 24.7-.5 54.9-.4h54.9l1 2.7zm285.2-2.3c0 .3-1.5 4.6-3.4 9.7-4.5 12.1-26.9 73.1-54 147.3-11.9 32.4-22.3 60.6-23 62.5-1.4 3.4-4 10.4-20.6 56-4.6 12.4-9.6 26.1-11.2 30.5-1.6 4.4-3.6 9.9-4.5 12.2-.8 2.4-1.8 4.5-2.2 4.7-.3.2-3.9-8.7-7.9-19.7-4-11.1-7.7-21.1-8.2-22.2-.5-1.1-6.1-16.4-12.5-34-12.7-34.9-15-41.2-17-46.5-1.6-4-12.8-34.4-33.5-91-14.6-40.1-22.9-62.4-31-84.5-4.5-12.1-9-24.6-9-25.2 0-.1 53.5-.2 119-.2s119 .2 119 .4zm156.3 2.4c-1 1.5-8.7 11.7-17 22.7-8.4 10.9-30.7 40.2-49.6 65-18.8 24.8-35.3 46.4-36.5 48-1.2 1.6-7.9 10.3-14.8 19.4-6.9 9.1-13 17.2-13.7 18-.7.8-4.6 6-8.7 11.5s-8 10.7-8.7 11.5c-.7.8-7.6 9.8-15.3 20-7.7 10.2-14.6 19.2-15.3 20-.7.8-4.6 6-8.7 11.5s-7.7 10.2-8 10.5c-.3.3-3.2 4.1-6.4 8.5-3.3 4.4-6.3 8.4-6.8 9-1 1.2 6.5-20.9 9.2-27 .8-1.8 4-10.4 13.2-36 1.6-4.4 9-24.7 16.5-45 7.4-20.4 15.1-41.3 17-46.5 1.9-5.2 4.3-11.8 5.4-14.5 1-2.8 4.8-12.9 8.3-22.5 3.5-9.6 9.8-27 14-38.5 4.3-11.6 10-27.2 12.7-34.7l5.1-13.7h54.9l55 .1-1.8 2.7z"/></svg>