<?xml version="1.0" encoding="UTF-8" standalone="no"?>
<svg width="32px" height="32px" viewBox="0 0 32 32" version="1.1" xmlns="http://www.w3.org/2000/svg" xmlns:xlink="http://www.w3.org/1999/xlink">
    <!-- Generator: Sketch 3.8.3 (29802) - http://www.bohemiancoding.com/sketch -->
    <title>famicon</title>
    <desc>Created with Sketch.</desc>
    <defs></defs>
    <g id="Page-1" stroke="none" stroke-width="1" fill="none" fill-rule="evenodd">
        <g id="famicon">
            <path d="M-2.22044605e-15,0 L33.5415039,0 L33.5415039,16 C33.5415039,16 34.8002881,34.7029887 34.7524414,34.7724609 C31.5530538,39.4178944 -2.22044605e-15,34.1586914 -2.22044605e-15,34.1586914 L-2.22044605e-15,0 Z" id="Path-85" fill="#F1C40F"></path>
            <path d="M28.1865021,10.2307968 L23.9681031,3.30778872 L20.1305369,3.30778872 L23.1185755,10.2307968 L28.1865021,10.2307968 Z M27.8935314,12.5384064 L23.1625066,12.5384064 L18.7683834,24.5276634 L27.8935314,12.5384064 Z M20.9947566,10.2307968 L18.006718,3.30778872 L13.993282,3.30778872 L11.0052434,10.2307968 L20.9947566,10.2307968 Z M21.1118576,12.5384064 L10.8881424,12.5384064 L16,26.4567592 L21.1118576,12.5384064 Z M13.2316166,24.5276634 L8.83749341,12.5384064 L4.10646855,12.5384064 L13.2316166,24.5276634 Z M11.8694631,3.30778872 L8.03189689,3.30778872 L3.81349791,10.2307968 L8.88142446,10.2307968 L11.8694631,3.30778872 Z M30.8084002,10.6995524 C31.0866787,11.1323187 31.0572943,11.7632945 30.749777,12.1779767 L16.6884955,30.6393912 C16.5126259,30.873769 16.2635863,31 16,31 C15.7364137,31 15.4873741,30.873769 15.3116499,30.6393912 L1.25022303,12.1779767 C0.942705689,11.7632945 0.913321344,11.1323187 1.19159981,10.6995524 L6.81622875,1.4687556 C6.99195295,1.16222023 7.27023142,1 7.56320205,1 L24.4367979,1 C24.7297686,1 25.0080471,1.16222023 25.1837712,1.4687556 L30.8084002,10.6995524 Z" id="Fill-1-Copy-3" fill="#000000"></path>
        </g>
    </g>
</svg>