<?xml version="1.0" encoding="UTF-8" standalone="no"?>
<svg width="30px" height="30px" viewBox="0 0 30 30" version="1.1" xmlns="http://www.w3.org/2000/svg" xmlns:xlink="http://www.w3.org/1999/xlink">
    <!-- Generator: Sketch 3.8.3 (29802) - http://www.bohemiancoding.com/sketch -->
    <title>Fill 1 Copy 2</title>
    <desc>Created with Sketch.</desc>
    <defs></defs>
    <g id="Page-1" stroke="none" stroke-width="1" fill="none" fill-rule="evenodd">
        <g id="Artboard-4" fill="#000000">
            <path d="M27.1865021,9.23079678 L22.9681031,2.30778872 L19.1305369,2.30778872 L22.1185755,9.23079678 L27.1865021,9.23079678 Z M26.8935314,11.5384064 L22.1625066,11.5384064 L17.7683834,23.5276634 L26.8935314,11.5384064 Z M19.9947566,9.23079678 L17.006718,2.30778872 L12.993282,2.30778872 L10.0052434,9.23079678 L19.9947566,9.23079678 Z M20.1118576,11.5384064 L9.88814241,11.5384064 L15,25.4567592 L20.1118576,11.5384064 Z M12.2316166,23.5276634 L7.83749341,11.5384064 L3.10646855,11.5384064 L12.2316166,23.5276634 Z M10.8694631,2.30778872 L7.03189689,2.30778872 L2.81349791,9.23079678 L7.88142446,9.23079678 L10.8694631,2.30778872 Z M29.8084002,9.69955237 C30.0866787,10.1323187 30.0572943,10.7632945 29.749777,11.1779767 L15.6884955,29.6393912 C15.5126259,29.873769 15.2635863,30 15,30 C14.7364137,30 14.4873741,29.873769 14.3116499,29.6393912 L0.250223032,11.1779767 C-0.0572943115,10.7632945 -0.0866786555,10.1323187 0.19159981,9.69955237 L5.81622875,0.468755595 C5.99195295,0.162220233 6.27023142,3.55271368e-15 6.56320205,3.55271368e-15 L23.4367979,3.55271368e-15 C23.7297686,3.55271368e-15 24.0080471,0.162220233 24.1837712,0.468755595 L29.8084002,9.69955237 Z" id="Fill-1-Copy-2"></path>
        </g>
    </g>
</svg>